<svg width="40" height="41" viewBox="0 0 40 41" fill="none" xmlns="http://www.w3.org/2000/svg">
<path d="M25.1997 14.8998H29.4397C29.5137 14.9014 29.5873 14.888 29.656 14.8605C29.7247 14.8329 29.787 14.7917 29.8394 14.7394C29.8917 14.6871 29.9329 14.6247 29.9605 14.556C29.988 14.4873 30.0014 14.4138 29.9997 14.3398C30.0037 14.2655 29.9915 14.1912 29.9639 14.1221C29.9362 14.053 29.8939 13.9908 29.8397 13.9398L24.5597 8.65976C24.5087 8.60563 24.4465 8.56328 24.3774 8.53564C24.3083 8.50801 24.234 8.49577 24.1597 8.49976C24.0858 8.49812 24.0122 8.51149 23.9435 8.53905C23.8748 8.56661 23.8124 8.6078 23.7601 8.66013C23.7078 8.71246 23.6666 8.77485 23.639 8.84354C23.6115 8.91222 23.5981 8.98577 23.5997 9.05976V13.2998C23.5997 13.7241 23.7683 14.1311 24.0684 14.4311C24.3684 14.7312 24.7754 14.8998 25.1997 14.8998Z" fill="#3371F2"/>
<path d="M29.2 17.3H23.6C22.9635 17.3 22.353 17.0471 21.9029 16.5971C21.4529 16.147 21.2 15.5365 21.2 14.9V9.3C21.2 9.08783 21.1157 8.88434 20.9657 8.73431C20.8157 8.58429 20.6122 8.5 20.4 8.5H12.4C11.7635 8.5 11.153 8.75286 10.7029 9.20294C10.2529 9.65303 10 10.2635 10 10.9V30.1C10 30.7365 10.2529 31.347 10.7029 31.7971C11.153 32.2471 11.7635 32.5 12.4 32.5H27.6C28.2365 32.5 28.847 32.2471 29.2971 31.7971C29.7471 31.347 30 30.7365 30 30.1V18.1C30 17.8878 29.9157 17.6843 29.7657 17.5343C29.6157 17.3843 29.4122 17.3 29.2 17.3ZM13.2 16.5C13.2 16.2878 13.2843 16.0843 13.4343 15.9343C13.5843 15.7843 13.7878 15.7 14 15.7H17.272C17.4842 15.7 17.6877 15.7843 17.8377 15.9343C17.9877 16.0843 18.072 16.2878 18.072 16.5V17.3C18.072 17.5122 17.9877 17.7157 17.8377 17.8657C17.6877 18.0157 17.4842 18.1 17.272 18.1H14C13.894 18.1033 13.7885 18.0849 13.69 18.0459C13.5914 18.0069 13.5019 17.9481 13.4269 17.8731C13.3519 17.7981 13.2931 17.7086 13.2541 17.61C13.2151 17.5115 13.1967 17.406 13.2 17.3V16.5ZM25.2 26.9C25.2 27.1122 25.1157 27.3157 24.9657 27.4657C24.8157 27.6157 24.6122 27.7 24.4 27.7H14C13.7878 27.7 13.5843 27.6157 13.4343 27.4657C13.2843 27.3157 13.2 27.1122 13.2 26.9V26.1C13.2 25.8878 13.2843 25.6843 13.4343 25.5343C13.5843 25.3843 13.7878 25.3 14 25.3H24.4C24.6122 25.3 24.8157 25.3843 24.9657 25.5343C25.1157 25.6843 25.2 25.8878 25.2 26.1V26.9ZM26.8 22.1C26.8 22.3122 26.7157 22.5157 26.5657 22.6657C26.4157 22.8157 26.2122 22.9 26 22.9H14C13.7878 22.9 13.5843 22.8157 13.4343 22.6657C13.2843 22.5157 13.2 22.3122 13.2 22.1V21.3C13.2 21.0878 13.2843 20.8843 13.4343 20.7343C13.5843 20.5843 13.7878 20.5 14 20.5H26C26.2122 20.5 26.4157 20.5843 26.5657 20.7343C26.7157 20.8843 26.8 21.0878 26.8 21.3V22.1Z" fill="#3371F2"/>
</svg>
