<svg width="22" height="22" viewBox="0 0 22 22" fill="none" xmlns="http://www.w3.org/2000/svg">
<path fill-rule="evenodd" clip-rule="evenodd" d="M10.9997 10.9999C11.7287 10.9999 12.3197 10.4089 12.3197 9.67986C12.3197 8.95084 11.7287 8.35986 10.9997 8.35986C10.2707 8.35986 9.67969 8.95084 9.67969 9.67986C9.67969 10.4089 10.2707 10.9999 10.9997 10.9999Z" stroke="#14213D" stroke-linecap="round" stroke-linejoin="round"/>
<path fill-rule="evenodd" clip-rule="evenodd" d="M10.9996 4.83984C10.7443 4.83994 10.4922 4.89738 10.2621 5.00792L5.71956 7.816V13.3354C5.68216 14.9224 6.93711 16.24 8.52412 16.2798H13.475C15.062 16.24 16.317 14.9224 16.2796 13.3354V7.816L11.737 5.00792C11.5069 4.89738 11.2548 4.83994 10.9996 4.83984Z" stroke="#14213D" stroke-linecap="round" stroke-linejoin="round"/>
<path d="M9.71595 12.3031C9.46356 12.0402 9.04574 12.0316 8.78279 12.284C8.51979 12.5363 8.5112 12.9542 8.76358 13.2172L9.71595 12.3031ZM13.2359 13.2172C13.4883 12.9542 13.4798 12.5363 13.2168 12.284C12.9538 12.0316 12.536 12.0402 12.2836 12.3031L13.2359 13.2172ZM6.06674 8.37778C6.37682 8.18616 6.47284 7.77945 6.28122 7.46938C6.08959 7.1593 5.68288 7.06328 5.37281 7.2549L6.06674 8.37778ZM4.49281 7.79874C4.18273 7.99037 4.08672 8.39707 4.27834 8.70715C4.46997 9.01723 4.87668 9.11324 5.18674 8.92162L4.49281 7.79874ZM16.6268 7.2549C16.3167 7.06328 15.91 7.1593 15.7183 7.46938C15.5267 7.77945 15.6228 8.18616 15.9328 8.37778L16.6268 7.2549ZM16.8128 8.92162C17.1229 9.11324 17.5296 9.01723 17.7212 8.70715C17.9129 8.39707 17.8168 7.99037 17.5068 7.79874L16.8128 8.92162ZM8.76358 13.2172C9.34811 13.8262 10.1557 14.1705 10.9998 14.1705V12.8505C10.5152 12.8505 10.0515 12.6529 9.71595 12.3031L8.76358 13.2172ZM10.9998 14.1705C11.8439 14.1705 12.6515 13.8262 13.2359 13.2172L12.2836 12.3031C11.9481 12.6529 11.4844 12.8505 10.9998 12.8505V14.1705ZM5.37281 7.2549L4.49281 7.79874L5.18674 8.92162L6.06674 8.37778L5.37281 7.2549ZM15.9328 8.37778L16.8128 8.92162L17.5068 7.79874L16.6268 7.2549L15.9328 8.37778Z" fill="#14213D"/>
</svg>
