<svg width="22" height="22" viewBox="0 0 22 22" fill="none" xmlns="http://www.w3.org/2000/svg">
<path d="M7.10418 2.2915C7.10418 1.91181 6.79638 1.604 6.41668 1.604C6.03699 1.604 5.72918 1.91181 5.72918 2.2915V3.73916C4.4098 3.8448 3.54364 4.10409 2.90729 4.74044C2.27094 5.37679 2.01165 6.24295 1.90601 7.56234H20.094C19.9884 6.24295 19.7291 5.37679 19.0927 4.74044C18.4564 4.10409 17.5902 3.8448 16.2708 3.73916V2.2915C16.2708 1.91181 15.963 1.604 15.5833 1.604C15.2037 1.604 14.8958 1.91181 14.8958 2.2915V3.67833C14.286 3.6665 13.6024 3.6665 12.8334 3.6665H9.16668C8.39757 3.6665 7.71401 3.6665 7.10418 3.67833V2.2915Z" fill="white"/>
<path fill-rule="evenodd" clip-rule="evenodd" d="M20.1666 11V12.8333C20.1666 16.2903 20.1666 18.0188 19.0926 19.0927C18.0187 20.1667 16.2902 20.1667 12.8333 20.1667H9.16659C5.70962 20.1667 3.98114 20.1667 2.90719 19.0927C1.83325 18.0188 1.83325 16.2903 1.83325 12.8333V11C1.83325 10.2309 1.83325 9.54736 1.84508 8.9375H20.1548C20.1666 9.54736 20.1666 10.2309 20.1666 11ZM14.6666 12.1458C15.0463 12.1458 15.3541 12.4536 15.3541 12.8333V13.9792H16.4999C16.8796 13.9792 17.1874 14.287 17.1874 14.6667C17.1874 15.0464 16.8796 15.3542 16.4999 15.3542H15.3541V16.5C15.3541 16.8797 15.0463 17.1875 14.6666 17.1875C14.2869 17.1875 13.9791 16.8797 13.9791 16.5V15.3542H12.8333C12.4536 15.3542 12.1458 15.0464 12.1458 14.6667C12.1458 14.287 12.4536 13.9792 12.8333 13.9792H13.9791V12.8333C13.9791 12.4536 14.2869 12.1458 14.6666 12.1458Z" fill="white"/>
</svg>
