<svg width="18" height="19" viewBox="0 0 18 19" fill="none" xmlns="http://www.w3.org/2000/svg">
<path d="M1.96875 15.9688C1.96875 16.2799 2.22012 16.5312 2.53125 16.5312H15.4688C15.7799 16.5312 16.0312 16.2799 16.0312 15.9688V8.58594H1.96875V15.9688ZM15.4688 3.73438H12.5156V2.60938C12.5156 2.53203 12.4523 2.46875 12.375 2.46875H11.3906C11.3133 2.46875 11.25 2.53203 11.25 2.60938V3.73438H6.75V2.60938C6.75 2.53203 6.68672 2.46875 6.60938 2.46875H5.625C5.54766 2.46875 5.48438 2.53203 5.48438 2.60938V3.73438H2.53125C2.22012 3.73438 1.96875 3.98574 1.96875 4.29688V7.39062H16.0312V4.29688C16.0312 3.98574 15.7799 3.73438 15.4688 3.73438Z" fill="#0252A9"/>
</svg>
