<svg width="26" height="26" viewBox="0 0 26 26" fill="none" xmlns="http://www.w3.org/2000/svg">
<path d="M2.16675 12.9998C2.16675 7.89295 2.16675 5.33951 3.75326 3.75301C5.33976 2.1665 7.89319 2.1665 13.0001 2.1665C18.1069 2.1665 20.6604 2.1665 22.2469 3.75301C23.8334 5.33951 23.8334 7.89295 23.8334 12.9998C23.8334 18.1067 23.8334 20.6602 22.2469 22.2466C20.6604 23.8332 18.1069 23.8332 13.0001 23.8332C7.89319 23.8332 5.33976 23.8332 3.75326 22.2466C2.16675 20.6602 2.16675 18.1067 2.16675 12.9998Z" fill="white"/>
<path fill-rule="evenodd" clip-rule="evenodd" d="M13 7.854C13.4487 7.854 13.8125 8.21778 13.8125 8.6665V12.6632L16.2828 15.1337C16.6001 15.451 16.6001 15.9654 16.2828 16.2827C15.9655 16.6 15.4511 16.6 15.1338 16.2827L12.4255 13.5743C12.2731 13.422 12.1875 13.2153 12.1875 12.9998V8.6665C12.1875 8.21778 12.5513 7.854 13 7.854Z" fill="#CB5C97"/>
</svg>
