<svg width="17" height="17" viewBox="0 0 17 17" fill="none" xmlns="http://www.w3.org/2000/svg">
<path d="M15.222 8.09688C13.7407 4.97656 11.5017 3.40625 8.50009 3.40625C5.49697 3.40625 3.25947 4.97656 1.77822 8.09844C1.7188 8.22425 1.68799 8.36165 1.68799 8.50078C1.68799 8.63991 1.7188 8.77732 1.77822 8.90312C3.25947 12.0234 5.49853 13.5938 8.50009 13.5938C11.5032 13.5938 13.7407 12.0234 15.222 8.90156C15.3423 8.64844 15.3423 8.35469 15.222 8.09688ZM8.50009 12.4688C5.97978 12.4688 4.13447 11.1906 2.8329 8.5C4.13447 5.80938 5.97978 4.53125 8.50009 4.53125C11.0204 4.53125 12.8657 5.80938 14.1673 8.5C12.8673 11.1906 11.022 12.4688 8.50009 12.4688ZM8.43759 5.75C6.91884 5.75 5.68759 6.98125 5.68759 8.5C5.68759 10.0188 6.91884 11.25 8.43759 11.25C9.95634 11.25 11.1876 10.0188 11.1876 8.5C11.1876 6.98125 9.95634 5.75 8.43759 5.75ZM8.43759 10.25C7.4704 10.25 6.68759 9.46719 6.68759 8.5C6.68759 7.53281 7.4704 6.75 8.43759 6.75C9.40478 6.75 10.1876 7.53281 10.1876 8.5C10.1876 9.46719 9.40478 10.25 8.43759 10.25Z" fill="#5A98FF"/>
</svg>
