<svg width="26" height="26" viewBox="0 0 26 26" fill="none" xmlns="http://www.w3.org/2000/svg">
<path d="M20.0416 9.75006H17.8749H20.0416ZM17.8749 9.75006H15.7083H17.8749ZM17.8749 9.75006V7.58337V9.75006ZM17.8749 9.75006V11.9167V9.75006Z" fill="white"/>
<path d="M20.0416 9.75006H17.8749M17.8749 9.75006H15.7083M17.8749 9.75006V7.58337M17.8749 9.75006V11.9167" stroke="white" stroke-width="2" stroke-linecap="round"/>
<mask id="path-3-inside-1_1566_6611" fill="white">
<path d="M13.0001 6.03869L12.4066 6.5936C12.5602 6.75792 12.7751 6.85119 13.0001 6.85119C13.2251 6.85119 13.4399 6.75792 13.5935 6.5936L13.0001 6.03869ZM2.87264 14.8223C3.10486 15.2064 3.60439 15.3293 3.98835 15.0972C4.37232 14.8649 4.49533 14.3654 4.26311 13.9814L2.87264 14.8223ZM7.08219 17.5183C6.76914 17.1968 6.25473 17.19 5.93324 17.503C5.61175 17.816 5.60491 18.3305 5.91797 18.6519L7.08219 17.5183ZM2.97925 10.094C2.97925 6.94736 4.35255 5.00214 6.0516 4.33685C7.74691 3.67302 10.1188 4.14682 12.4066 6.5936L13.5935 5.48377C11.0065 2.71689 7.96176 1.84375 5.45911 2.82371C2.9602 3.8022 1.35425 6.49149 1.35425 10.094H2.97925ZM16.8036 21.6245C18.4203 20.3125 20.3574 18.5541 21.8972 16.5902C23.4213 14.6463 24.6459 12.3884 24.6459 10.094H23.0209C23.0209 11.8397 22.0683 13.7382 20.6184 15.5875C19.1842 17.4168 17.3503 19.0881 15.7796 20.3627L16.8036 21.6245ZM24.6459 10.094C24.6459 6.49148 23.04 3.80219 20.5411 2.82371C18.0384 1.84375 14.9936 2.71689 12.4066 5.48377L13.5935 6.5936C15.8813 4.14682 18.2533 3.67301 19.9486 4.33685C21.6476 5.00213 23.0209 6.94733 23.0209 10.094H24.6459ZM9.19665 21.6245C10.574 22.7423 11.5292 23.5626 13.0001 23.5626V21.9376C12.2169 21.9376 11.7292 21.5869 10.2206 20.3627L9.19665 21.6245ZM15.7796 20.3627C14.2709 21.5869 13.7832 21.9376 13.0001 21.9376V23.5626C14.4709 23.5626 15.4261 22.7423 16.8036 21.6245L15.7796 20.3627ZM4.26311 13.9814C3.45387 12.6434 2.97925 11.3263 2.97925 10.094H1.35425C1.35425 11.7322 1.97875 13.3444 2.87264 14.8223L4.26311 13.9814ZM10.2206 20.3627C9.22717 19.5565 8.12392 18.5881 7.08219 17.5183L5.91797 18.6519C7.01518 19.7787 8.16837 20.7901 9.19665 21.6245L10.2206 20.3627Z"/>
</mask>
<path d="M13.0001 6.03869L12.4066 6.5936C12.5602 6.75792 12.7751 6.85119 13.0001 6.85119C13.2251 6.85119 13.4399 6.75792 13.5935 6.5936L13.0001 6.03869ZM2.87264 14.8223C3.10486 15.2064 3.60439 15.3293 3.98835 15.0972C4.37232 14.8649 4.49533 14.3654 4.26311 13.9814L2.87264 14.8223ZM7.08219 17.5183C6.76914 17.1968 6.25473 17.19 5.93324 17.503C5.61175 17.816 5.60491 18.3305 5.91797 18.6519L7.08219 17.5183ZM2.97925 10.094C2.97925 6.94736 4.35255 5.00214 6.0516 4.33685C7.74691 3.67302 10.1188 4.14682 12.4066 6.5936L13.5935 5.48377C11.0065 2.71689 7.96176 1.84375 5.45911 2.82371C2.9602 3.8022 1.35425 6.49149 1.35425 10.094H2.97925ZM16.8036 21.6245C18.4203 20.3125 20.3574 18.5541 21.8972 16.5902C23.4213 14.6463 24.6459 12.3884 24.6459 10.094H23.0209C23.0209 11.8397 22.0683 13.7382 20.6184 15.5875C19.1842 17.4168 17.3503 19.0881 15.7796 20.3627L16.8036 21.6245ZM24.6459 10.094C24.6459 6.49148 23.04 3.80219 20.5411 2.82371C18.0384 1.84375 14.9936 2.71689 12.4066 5.48377L13.5935 6.5936C15.8813 4.14682 18.2533 3.67301 19.9486 4.33685C21.6476 5.00213 23.0209 6.94733 23.0209 10.094H24.6459ZM9.19665 21.6245C10.574 22.7423 11.5292 23.5626 13.0001 23.5626V21.9376C12.2169 21.9376 11.7292 21.5869 10.2206 20.3627L9.19665 21.6245ZM15.7796 20.3627C14.2709 21.5869 13.7832 21.9376 13.0001 21.9376V23.5626C14.4709 23.5626 15.4261 22.7423 16.8036 21.6245L15.7796 20.3627ZM4.26311 13.9814C3.45387 12.6434 2.97925 11.3263 2.97925 10.094H1.35425C1.35425 11.7322 1.97875 13.3444 2.87264 14.8223L4.26311 13.9814ZM10.2206 20.3627C9.22717 19.5565 8.12392 18.5881 7.08219 17.5183L5.91797 18.6519C7.01518 19.7787 8.16837 20.7901 9.19665 21.6245L10.2206 20.3627Z" fill="white"/>
<path d="M10.2206 20.3627L23.162 30.865L-2.72037 9.8599L10.2206 20.3627ZM16.8036 21.6245L3.86268 32.1274L29.7449 11.1221L16.8036 21.6245ZM9.70862 20.9935L22.6496 31.4964L23.1616 30.8655L10.2206 20.3627L-2.72037 9.8599L-3.23235 10.4907L9.70862 20.9935ZM16.2916 20.9937L3.35069 31.4966L3.86268 32.1274L16.8036 21.6245L29.7444 11.1216L29.2324 10.4907L16.2916 20.9937ZM13.0001 22.7501H29.6667V21.9376H13.0001H-3.66659V22.7501H13.0001ZM4.26311 13.9814L-4.36157 -0.280135L-5.75204 0.560749L2.87264 14.8223L11.4973 29.0839L12.8878 28.243L4.26311 13.9814ZM5.91797 18.6519L17.545 30.593L18.7093 29.4594L7.08219 17.5183L-4.54487 5.57724L-5.70909 6.71085L5.91797 18.6519ZM1.35425 10.094V26.7607H2.97925V10.094V-6.57265H1.35425V10.094ZM24.6459 10.094V-6.57268H23.0209V10.094V26.7607H24.6459V10.094ZM15.7796 20.3627L2.83828 30.8651L3.86225 32.1269L16.8036 21.6245L29.7449 11.1221L28.7209 9.86032L15.7796 20.3627ZM13.0001 23.5626H29.6667V21.9376H13.0001H-3.66659V23.5626H13.0001ZM10.2206 20.3627L-2.72082 9.86045L-3.74476 11.1222L9.19665 21.6245L22.1381 32.1267L23.162 30.865L10.2206 20.3627ZM10.2206 20.3627L-10.7844 46.2452L-10.7827 46.2466L10.2206 20.3627ZM13.0001 6.03869L35.7666 -18.3088L13.0001 -39.597L-9.76643 -18.3087L13.0001 6.03869ZM16.8036 21.6245L37.8074 47.5078L37.8079 47.5075L16.8036 21.6245ZM2.87264 14.8223L31.3966 -2.42564L31.3946 -2.42903L2.87264 14.8223ZM3.98835 15.0972L21.2353 43.6218L21.2412 43.6182L3.98835 15.0972ZM4.26311 13.9814L-24.2594 31.2319L-24.2587 31.233L4.26311 13.9814ZM7.08219 17.5183L-16.801 40.7714L-16.7991 40.7733L7.08219 17.5183ZM5.93324 17.503L29.185 41.3874L29.1892 41.3834L5.93324 17.503ZM5.91797 18.6519L29.7994 -4.60293L29.7968 -4.6056L5.91797 18.6519ZM6.0516 4.33685L-6.10206 -26.7018L-6.10215 -26.7018L6.0516 4.33685ZM13.5935 5.48377L36.36 29.8312L60.7064 7.06571L37.942 -17.2817L13.5935 5.48377ZM5.45911 2.82371L17.6128 33.8624L17.6129 33.8623L5.45911 2.82371ZM21.8972 16.5902L-4.33463 -3.97683L-4.33482 -3.97659L21.8972 16.5902ZM20.6184 15.5875L-5.6132 -4.97981L-5.61375 -4.9791L20.6184 15.5875ZM15.7796 20.3627L36.7827 46.2467L36.7838 46.2458L15.7796 20.3627ZM20.5411 2.82371L8.38709 33.8623L8.38754 33.8625L20.5411 2.82371ZM12.4066 5.48377L-11.9418 -17.2817L-34.7062 7.06571L-10.3599 29.8312L12.4066 5.48377ZM19.9486 4.33685L32.1026 -26.7017L32.1024 -26.7018L19.9486 4.33685ZM9.19665 21.6245L30.2011 -4.25839L30.1998 -4.25945L9.19665 21.6245ZM13.0001 6.03869L-9.76643 -18.3087L-10.3599 -17.7538L12.4066 6.5936L35.1731 30.941L35.7666 30.3861L13.0001 6.03869ZM12.4066 6.5936L-11.9433 29.3574C-5.48653 36.2641 3.54499 40.1845 13.0001 40.1845V6.85119V-26.4821C22.0051 -26.4821 30.607 -22.7482 36.7566 -16.1702L12.4066 6.5936ZM13.0001 6.85119V40.1845C22.4551 40.1845 31.4867 36.2641 37.9435 29.3574L13.5935 6.5936L-10.7564 -16.1702C-4.60684 -22.7483 3.99505 -26.4821 13.0001 -26.4821V6.85119ZM13.5935 6.5936L36.36 -17.7538L35.7666 -18.3088L13.0001 6.03869L-9.76641 30.3861L-9.17296 30.941L13.5935 6.5936ZM2.87264 14.8223L-25.6514 32.0703C-15.8907 48.2121 5.10276 53.3761 21.2353 43.6218L3.98835 15.0972L-13.2586 -13.4275C2.10601 -22.7174 22.1004 -17.7993 31.3966 -2.42564L2.87264 14.8223ZM3.98835 15.0972L21.2412 43.6182C37.3732 33.8597 42.5465 12.8687 32.785 -3.27008L4.26311 13.9814L-24.2587 31.233C-33.5559 15.8621 -28.6286 -4.1299 -13.2645 -13.4239L3.98835 15.0972ZM7.08219 17.5183L30.9653 -5.73477C17.8079 -19.2487 -3.81232 -19.5344 -17.3227 -6.37734L5.93324 17.503L29.1892 41.3834C16.3218 53.9143 -4.26964 53.6423 -16.801 40.7714L7.08219 17.5183ZM5.93324 17.503L-17.3186 -6.38136C-30.8339 6.77605 -31.1202 28.3985 -17.9609 41.9094L5.91797 18.6519L29.7968 -4.6056C42.3301 8.26246 42.0574 28.856 29.185 41.3874L5.93324 17.503ZM2.97925 10.094H36.3126C36.3126 16.3938 32.8426 29.644 18.2054 35.3755L6.0516 4.33685L-6.10215 -26.7018C-24.1375 -19.6397 -30.3541 -2.49912 -30.3541 10.094H2.97925ZM6.0516 4.33685L18.2053 35.3755C3.41069 41.1686 -8.02342 33.5497 -11.9414 29.3595L12.4066 6.5936L36.7546 -16.1723C28.2611 -25.2561 12.0831 -33.8225 -6.10206 -26.7018L6.0516 4.33685ZM12.4066 6.5936L35.1731 30.941L36.36 29.8312L13.5935 5.48377L-9.17296 -18.8637L-10.3599 -17.7538L12.4066 6.5936ZM13.5935 5.48377L37.942 -17.2817C29.2668 -26.56 12.424 -35.7012 -6.69467 -28.2149L5.45911 2.82371L17.6129 33.8623C3.49956 39.3887 -7.25376 31.9938 -10.7549 28.2492L13.5935 5.48377ZM5.45911 2.82371L-6.69461 -28.2149C-25.6558 -20.7904 -31.9791 -2.78541 -31.9791 10.094H1.35425H34.6876C34.6876 15.7684 31.5762 28.3948 17.6128 33.8624L5.45911 2.82371ZM16.8036 21.6245L37.8079 47.5075C40.3697 45.4286 44.4247 41.8819 48.1292 37.157L21.8972 16.5902L-4.33482 -3.97659C-4.12225 -4.24771 -3.96395 -4.42569 -3.88381 -4.51305C-3.80178 -4.60247 -3.76439 -4.63745 -3.78153 -4.62089C-3.79735 -4.60561 -3.84368 -4.56182 -3.92259 -4.49257C-4.00058 -4.42412 -4.09411 -4.34508 -4.20079 -4.25851L16.8036 21.6245ZM21.8972 16.5902L48.129 37.1573C51.1746 33.2728 57.9792 23.6442 57.9792 10.094H24.6459H-8.68742C-8.68742 5.31114 -7.42409 1.71066 -6.51003 -0.303205C-5.60017 -2.30784 -4.67707 -3.54007 -4.33463 -3.97683L21.8972 16.5902ZM23.0209 10.094H-10.3124C-10.3124 4.96179 -8.94063 1.12019 -7.98981 -0.974692C-7.02259 -3.1057 -6.03281 -4.44464 -5.6132 -4.97981L20.6184 15.5875L46.85 36.1548C49.8219 32.3645 56.3542 23.0953 56.3542 10.094H23.0209ZM20.6184 15.5875L-5.61375 -4.9791C-5.37147 -5.28813 -5.18498 -5.49853 -5.08054 -5.61232C-4.97395 -5.72847 -4.9135 -5.78676 -4.9102 -5.78995C-4.90546 -5.79453 -4.93264 -5.7682 -4.99436 -5.71402C-5.05513 -5.66067 -5.13265 -5.59501 -5.22464 -5.52036L15.7796 20.3627L36.7838 46.2458C39.2989 44.2048 43.2512 40.745 46.8506 36.1541L20.6184 15.5875ZM24.6459 10.094H57.9792C57.9792 -2.78528 51.656 -20.7905 32.6946 -28.215L20.5411 2.82371L8.38754 33.8625C-5.57607 28.3949 -8.68742 15.7682 -8.68742 10.094H24.6459ZM20.5411 2.82371L32.695 -28.2148C13.5763 -35.7013 -3.2667 -26.56 -11.9418 -17.2817L12.4066 5.48377L36.7551 28.2492C33.254 31.9938 22.5006 39.3888 8.38709 33.8623L20.5411 2.82371ZM12.4066 5.48377L-10.3599 29.8312L-9.17296 30.941L13.5935 6.5936L36.36 -17.7538L35.1731 -18.8637L12.4066 5.48377ZM13.5935 6.5936L37.9416 29.3594C34.0236 33.5497 22.5894 41.1686 7.79475 35.3755L19.9486 4.33685L32.1024 -26.7018C13.9171 -33.8226 -2.26099 -25.2561 -10.7545 -16.1722L13.5935 6.5936ZM19.9486 4.33685L7.7946 35.3754C-6.8422 29.644 -10.3124 16.3942 -10.3124 10.094H23.0209H56.3542C56.3542 -2.49955 50.1373 -19.6397 32.1026 -26.7017L19.9486 4.33685ZM9.19665 21.6245L-11.8078 47.5073C-11.7002 47.5947 -10.8771 48.2706 -10.0786 48.8809C-9.19661 49.5552 -7.65476 50.6911 -5.65327 51.8513C-1.05976 54.514 5.25975 56.8959 13.0001 56.8959V23.5626V-9.77077C19.2696 -9.77077 24.3761 -7.79902 27.7799 -5.82595C29.1866 -5.01056 30.1394 -4.28925 30.409 -4.08317C30.595 -3.94101 30.7822 -3.78687 30.2011 -4.25839L9.19665 21.6245ZM13.0001 21.9376V-11.3958C15.4558 -11.3958 18.4551 -11.1003 21.7268 -10.1521C24.8722 -9.24045 27.2718 -8.01263 28.8068 -7.10798C30.2127 -6.27941 31.1578 -5.55992 31.3344 -5.42582C31.5409 -5.26907 31.6038 -5.2128 31.2239 -5.52113L10.2206 20.3627L-10.7827 46.2466C-10.6106 46.3862 -8.03992 48.5596 -5.04198 50.3264C-0.151893 53.2083 5.94807 55.2709 13.0001 55.2709V21.9376ZM15.7796 20.3627L-5.22351 -5.52127C-5.6035 -5.21294 -5.54061 -5.2692 -5.33413 -5.42593C-5.15748 -5.56001 -4.21241 -6.27948 -2.80652 -7.10803C-1.27155 -8.01265 1.12802 -9.24046 4.27341 -10.1521C7.54505 -11.1003 10.5444 -11.3958 13.0001 -11.3958V21.9376V55.2709C20.0521 55.2709 26.152 53.2083 31.0421 50.3264C34.0399 48.5597 36.6106 46.3863 36.7827 46.2467L15.7796 20.3627ZM13.0001 23.5626V56.8959C20.7405 56.8959 27.06 54.514 31.6534 51.8513C33.6548 50.6912 35.1966 49.5553 36.0785 48.8811C36.8768 48.2709 37.6999 47.5951 37.8074 47.5078L16.8036 21.6245L-4.20033 -4.25887C-4.78155 -3.78723 -4.59436 -3.94136 -4.40855 -4.0834C-4.13909 -4.28938 -3.18629 -5.01064 -1.7797 -5.82598C1.62406 -7.79899 6.73053 -9.77077 13.0001 -9.77077V23.5626ZM4.26311 13.9814L32.7856 -3.269C33.7139 -1.73408 36.3126 3.00098 36.3126 10.094H2.97925H-30.3541C-30.3541 19.6516 -26.8062 27.0209 -24.2594 31.2319L4.26311 13.9814ZM1.35425 10.094H-31.9791C-31.9791 20.0605 -28.2791 27.7258 -25.6493 32.0737L2.87264 14.8223L31.3946 -2.42903C32.2366 -1.03689 34.6876 3.404 34.6876 10.094H1.35425ZM10.2206 20.3627L31.2255 -5.51977C31.1061 -5.61666 31.0143 -5.69581 30.9532 -5.75074C30.8893 -5.80815 30.8965 -5.80543 30.9635 -5.73665L7.08219 17.5183L-16.7991 40.7733C-14.6189 43.0123 -12.4911 44.8601 -10.7844 46.2452L10.2206 20.3627ZM5.91797 18.6519L-17.9635 41.9068C-15.7286 44.2018 -13.551 46.0929 -11.8065 47.5084L9.19665 21.6245L30.1998 -4.25945C30.0635 -4.37006 29.9513 -4.46634 29.8674 -4.54174C29.7809 -4.61947 29.7614 -4.64196 29.7994 -4.60293L5.91797 18.6519Z" fill="white" mask="url(#path-3-inside-1_1566_6611)"/>
</svg>
