<svg width="20" height="20" viewBox="0 0 20 20" fill="none" xmlns="http://www.w3.org/2000/svg">
<path fill-rule="evenodd" clip-rule="evenodd" d="M2.8146 4.23518C2.5 4.6834 2.5 6.01573 2.5 8.68042V9.99267C2.5 14.691 6.03247 16.9711 8.2488 17.9393C8.85 18.2018 9.15058 18.3332 10 18.3332C10.8494 18.3332 11.15 18.2018 11.7512 17.9393C13.9675 16.9711 17.5 14.691 17.5 9.99267V8.68042C17.5 6.01573 17.5 4.6834 17.1854 4.23518C16.8708 3.78695 15.6181 3.35814 13.1126 2.5005L12.6353 2.3371C11.3292 1.89004 10.6762 1.6665 10 1.6665C9.32383 1.6665 8.67083 1.89004 7.36477 2.3371L6.88742 2.5005C4.38193 3.35814 3.12919 3.78695 2.8146 4.23518ZM12.5496 8.74942C12.7794 8.49192 12.7571 8.09685 12.4996 7.86696C12.2421 7.63706 11.847 7.65943 11.6171 7.91691L9.10717 10.7281L8.38292 9.91692C8.15298 9.65942 7.75789 9.63709 7.50041 9.86692C7.24293 10.0968 7.22056 10.4919 7.45046 10.7494L8.64092 12.0828C8.7595 12.2156 8.92908 12.2915 9.10717 12.2915C9.28517 12.2915 9.45475 12.2156 9.57333 12.0828L12.5496 8.74942Z" fill="#152340"/>
</svg>
