<svg width="26" height="27" viewBox="0 0 26 27" fill="none" xmlns="http://www.w3.org/2000/svg">
<path d="M22.75 16.75C22.75 8.71706 14.0216 2.0784 13.65 1.79998C13.4625 1.65934 13.2344 1.58331 13 1.58331C12.7656 1.58331 12.5375 1.65934 12.35 1.79998C11.9784 2.0784 3.25 8.71706 3.25 16.75C3.25 20.7031 4.94217 25.4166 13 25.4166C21.0578 25.4166 22.75 20.7031 22.75 16.75ZM13 23.25C7.75558 23.25 5.41667 21.2447 5.41667 16.75C5.41667 10.9736 11.0554 5.70648 13 4.0609C14.95 5.69998 20.5833 10.9617 20.5833 16.75C20.5833 21.2447 18.2444 23.25 13 23.25ZM13 21.0833C13 21.3706 12.8859 21.6462 12.6827 21.8493C12.4795 22.0525 12.204 22.1666 11.9167 22.1666C11.198 22.1939 10.4815 22.0724 9.81203 21.8098C9.14253 21.5472 8.53448 21.1492 8.02597 20.6407C7.51745 20.1322 7.11944 19.5241 6.85685 18.8546C6.59427 18.1851 6.47278 17.4686 6.5 16.75C6.5 16.4627 6.61414 16.1871 6.8173 15.9839C7.02047 15.7808 7.29602 15.6666 7.58333 15.6666C7.87065 15.6666 8.1462 15.7808 8.34937 15.9839C8.55253 16.1871 8.66667 16.4627 8.66667 16.75C8.64373 17.1828 8.71208 17.6156 8.86729 18.0203C9.02251 18.425 9.26111 18.7926 9.5676 19.0991C9.87408 19.4055 10.2416 19.6441 10.6463 19.7994C11.051 19.9546 11.4838 20.0229 11.9167 20C12.204 20 12.4795 20.1141 12.6827 20.3173C12.8859 20.5204 13 20.796 13 21.0833Z" fill="white"/>
</svg>
