<svg width="26" height="27" viewBox="0 0 26 27" fill="none" xmlns="http://www.w3.org/2000/svg">
<g clip-path="url(#clip0_1566_6713)">
<path d="M13 6.1875C14.5706 6.1875 15.8438 4.91431 15.8438 3.34375C15.8438 1.77319 14.5706 0.5 13 0.5C11.4294 0.5 10.1562 1.77319 10.1562 3.34375C10.1562 4.91431 11.4294 6.1875 13 6.1875Z" fill="white"/>
<path d="M22.1914 7H3.80859C3.44496 7 3.09621 7.14445 2.83908 7.40158C2.58195 7.65871 2.4375 8.00745 2.4375 8.37109C2.4375 8.73473 2.58195 9.08347 2.83908 9.3406C3.09621 9.59773 3.44496 9.74219 3.80859 9.74219H8.98219C9.33309 9.74219 9.74391 9.8991 9.97648 10.5039C10.2482 11.2062 10.1151 12.5626 9.94754 13.6132L9.72816 14.8548C9.72857 14.8581 9.72824 14.8614 9.72718 14.8644C9.72612 14.8675 9.72438 14.8703 9.72207 14.8726L7.96504 24.8669C7.90132 25.2297 7.98389 25.6029 8.19469 25.905C8.40548 26.2071 8.72734 26.4133 9.08984 26.4787C9.26906 26.5104 9.45279 26.5062 9.63037 26.4663C9.80794 26.4264 9.97582 26.3516 10.1243 26.2463C10.2727 26.141 10.3987 26.0072 10.4951 25.8528C10.5914 25.6984 10.6561 25.5264 10.6854 25.3468L11.8996 18.3999C11.8996 18.3999 12.2891 16.75 13 16.75C13.7226 16.75 14.104 18.3999 14.104 18.3999L15.3182 25.3528C15.3475 25.5341 15.4127 25.7076 15.5098 25.8634C15.6069 26.0192 15.7341 26.1541 15.8839 26.2602C16.0336 26.3663 16.2031 26.4416 16.3822 26.4816C16.5614 26.5216 16.7467 26.5255 16.9274 26.4932C17.1081 26.4608 17.2806 26.3928 17.4347 26.2931C17.5889 26.1935 17.7216 26.0641 17.8253 25.9126C17.929 25.7611 18.0014 25.5905 18.0385 25.4107C18.0755 25.2309 18.0764 25.0455 18.0411 24.8654L16.2835 14.8711C16.2839 14.8679 16.2836 14.8647 16.2826 14.8616C16.2817 14.8585 16.2801 14.8557 16.2779 14.8533L16.058 13.6117C15.8905 12.5611 15.7574 11.2047 16.0291 10.5024C16.2607 9.8991 16.6847 9.74066 17.0082 9.74066H22.1914C22.555 9.74066 22.9038 9.59621 23.1609 9.33908C23.418 9.08195 23.5625 8.7332 23.5625 8.36957C23.5625 8.00593 23.418 7.65719 23.1609 7.40006C22.9038 7.14293 22.555 6.99847 22.1914 6.99847V7Z" fill="white"/>
</g>
<defs>
<clipPath id="clip0_1566_6713">
<rect width="26" height="26" fill="white" transform="translate(0 0.5)"/>
</clipPath>
</defs>
</svg>
