<svg width="23" height="22" viewBox="0 0 23 22" fill="none" xmlns="http://www.w3.org/2000/svg">
<path d="M11.4785 18.2188C11.6365 18.2188 11.793 18.1876 11.9389 18.1272C12.0849 18.0667 12.2175 17.9781 12.3293 17.8664C12.441 17.7546 12.5296 17.622 12.5901 17.476C12.6505 17.3301 12.6816 17.1736 12.6816 17.0156C12.6816 16.8576 12.6505 16.7012 12.5901 16.5552C12.5296 16.4092 12.441 16.2766 12.3293 16.1649C12.2175 16.0532 12.0849 15.9645 11.9389 15.9041C11.793 15.8436 11.6365 15.8125 11.4785 15.8125C11.3205 15.8125 11.1641 15.8436 11.0181 15.9041C10.8721 15.9645 10.7395 16.0532 10.6278 16.1649C10.5161 16.2766 10.4274 16.4092 10.367 16.5552C10.3065 16.7012 10.2754 16.8576 10.2754 17.0156C10.2754 17.1736 10.3065 17.3301 10.367 17.476C10.4274 17.622 10.5161 17.7546 10.6278 17.8664C10.7395 17.9781 10.8721 18.0667 11.0181 18.1272C11.1641 18.1876 11.3205 18.2188 11.4785 18.2188ZM11.4785 12.2031C11.7976 12.2031 12.1036 12.0764 12.3293 11.8507C12.5549 11.6251 12.6816 11.3191 12.6816 11C12.6816 10.6809 12.5549 10.3749 12.3293 10.1493C12.1036 9.92363 11.7976 9.79688 11.4785 9.79688C11.1594 9.79688 10.8534 9.92363 10.6278 10.1493C10.4021 10.3749 10.2754 10.6809 10.2754 11C10.2754 11.3191 10.4021 11.6251 10.6278 11.8507C10.8534 12.0764 11.1594 12.2031 11.4785 12.2031ZM11.4785 6.1875C11.7976 6.1875 12.1036 6.06074 12.3293 5.83511C12.5549 5.60948 12.6816 5.30346 12.6816 4.98438C12.6816 4.66529 12.5549 4.35927 12.3293 4.13364C12.1036 3.90801 11.7976 3.78125 11.4785 3.78125C11.1594 3.78125 10.8534 3.90801 10.6278 4.13364C10.4021 4.35927 10.2754 4.66529 10.2754 4.98438C10.2754 5.30346 10.4021 5.60948 10.6278 5.83511C10.8534 6.06074 11.1594 6.1875 11.4785 6.1875Z" fill="#1A2035"/>
</svg>
