<svg width="22" height="22" viewBox="0 0 22 22" fill="none" xmlns="http://www.w3.org/2000/svg">
<g clip-path="url(#clip0_1566_6690)">
<path d="M10.7728 3.79401H6.44038C2.88339 3.79401 -0.000244141 6.6776 -0.000244141 10.2346V14.6013C-0.000244141 16.592 1.61379 18.206 3.60445 18.206H4.54907C5.40106 18.206 6.61226 17.9516 7.24807 17.3158L11.3187 13.842C11.5067 13.6829 11.6141 13.4486 11.6141 13.2021V4.63525C11.6141 4.17067 11.2374 3.79401 10.7728 3.79401Z" fill="white"/>
<path d="M21.8038 4.77894C21.4963 4.17467 20.876 3.79401 20.1979 3.79401H13.3034C12.8388 3.79401 12.4622 4.17067 12.4622 4.63525V12.2783C12.4622 12.7429 12.8388 13.1196 13.3034 13.1196H15.1195C16.273 13.1196 17.3566 12.5677 18.0347 11.6351L21.6555 6.65611C22.0542 6.10826 22.112 5.38252 21.8038 4.77894Z" fill="white"/>
</g>
<defs>
<clipPath id="clip0_1566_6690">
<rect width="22" height="22" fill="white"/>
</clipPath>
</defs>
</svg>
