<svg width="20" height="20" viewBox="0 0 20 20" fill="none" xmlns="http://www.w3.org/2000/svg">
<path fill-rule="evenodd" clip-rule="evenodd" d="M4.42577 8.96792C6.85774 4.65597 8.07372 2.5 9.99935 2.5C11.9249 2.5 13.1409 4.65597 15.5729 8.96792L15.8759 9.50525C17.8969 13.0884 18.9074 14.88 17.9941 16.19C17.0808 17.5 14.8213 17.5 10.3024 17.5H9.69627C5.17732 17.5 2.91782 17.5 2.00457 16.19C1.0913 14.88 2.10177 13.0884 4.12272 9.50525L4.42577 8.96792ZM9.99935 6.04167C10.3445 6.04167 10.6243 6.32149 10.6243 6.66667V10.8333C10.6243 11.1785 10.3445 11.4583 9.99935 11.4583C9.65418 11.4583 9.37435 11.1785 9.37435 10.8333V6.66667C9.37435 6.32149 9.65418 6.04167 9.99935 6.04167ZM9.99935 14.1667C10.4596 14.1667 10.8327 13.7936 10.8327 13.3333C10.8327 12.8731 10.4596 12.5 9.99935 12.5C9.5391 12.5 9.16602 12.8731 9.16602 13.3333C9.16602 13.7936 9.5391 14.1667 9.99935 14.1667Z" fill="white"/>
</svg>
