<svg width="22" height="22" viewBox="0 0 22 22" fill="none" xmlns="http://www.w3.org/2000/svg">
<g clip-path="url(#clip0_1566_6665)">
<path d="M16.5 13.5832L17.875 14.9582V10.3125H16.5V13.5832Z" fill="white"/>
<path d="M20.2812 10.3125H18.9062V15.4688H20.2812V10.3125Z" fill="white"/>
<path d="M15.6169 4.9008C15.229 5.35583 14.9998 5.92472 14.9637 6.52154C14.9277 7.11836 15.0869 7.7107 15.4172 8.20909L15.6736 8.59375H17.3262L16.5613 7.44648C16.3965 7.1978 16.3171 6.90223 16.3351 6.60442C16.353 6.30662 16.4675 6.02275 16.661 5.79571C17.0611 5.33035 17.2934 4.74409 17.3205 4.13096C17.3476 3.51783 17.168 2.91336 16.8105 2.4145L16.5591 2.0625H14.9874L14.9092 2.11836L15.6916 3.21363C15.8699 3.46256 15.9595 3.76418 15.946 4.07012C15.9325 4.37606 15.8166 4.6686 15.6169 4.9008Z" fill="white"/>
<path d="M18.7107 4.9008C18.3228 5.35583 18.0935 5.92472 18.0575 6.52154C18.0215 7.11836 18.1806 7.7107 18.5109 8.20909L18.7673 8.59375H20.4199L19.6551 7.44648C19.4902 7.1978 19.4108 6.90223 19.4288 6.60442C19.4468 6.30662 19.5612 6.02275 19.7548 5.79571C20.1549 5.33035 20.3871 4.74409 20.4142 4.13096C20.4413 3.51783 20.2617 2.91336 19.9043 2.4145L19.6528 2.0625H18.0811L18.0029 2.11836L18.7853 3.21363C18.9637 3.46256 19.0533 3.76418 19.0398 4.07012C19.0262 4.37606 18.9103 4.6686 18.7107 4.9008Z" fill="white"/>
<path d="M11.2848 10.3125L1.65975 0.6875H0.6875V1.65975L9.34025 10.3125H0.6875V15.4688H14.4965L20.3402 21.3125H21.3125V20.3402L11.2848 10.3125ZM2.0625 14.0938V11.6875H10.7152L13.1215 14.0938H2.0625Z" fill="white"/>
</g>
<defs>
<clipPath id="clip0_1566_6665">
<rect width="22" height="22" fill="white"/>
</clipPath>
</defs>
</svg>
