<svg width="15" height="15" viewBox="0 0 15 15" fill="none" xmlns="http://www.w3.org/2000/svg">
<path d="M8.01159 14.3181C8.01159 13.9415 7.70634 13.6363 7.32979 13.6363C6.95325 13.6363 6.64795 13.9415 6.64795 14.3181C6.64795 14.6947 6.95325 14.9999 7.32979 14.9999C7.70634 14.9999 8.01159 14.6947 8.01159 14.3181Z" fill="black"/>
<path fill-rule="evenodd" clip-rule="evenodd" d="M11.8522 8.50369C12.4734 7.58227 12.7841 6.56588 12.7841 5.45456C12.7841 3.94831 12.2516 2.66266 11.1865 1.5976C10.1214 0.532533 8.83575 0 7.32956 0C5.82331 0 4.53766 0.532533 3.4726 1.5976C2.40753 2.66266 1.875 3.94831 1.875 5.45456C1.875 6.56588 2.18562 7.58227 2.80688 8.50369C3.22744 9.1275 3.74172 9.63567 4.34971 10.0282V10.0305C4.641 10.2503 4.86957 10.5381 5.03538 10.8936C5.20119 11.2492 5.28409 11.6293 5.28409 12.0341C5.28409 12.0708 5.28336 12.1076 5.28191 12.1443C5.28046 12.181 5.27828 12.2176 5.27537 12.2543H5.28409V12.2727H9.375V12.0341C9.375 11.6232 9.46022 11.2381 9.63075 10.8787C9.80128 10.5192 10.0357 10.2303 10.3341 10.0122C10.9313 9.62189 11.4373 9.11906 11.8522 8.50369Z" fill="url(#paint0_radial_1566_6731)"/>
<path d="M5.28394 12.9546C5.28394 13.7077 5.89446 14.3182 6.64759 14.3182H8.01119C8.76433 14.3182 9.37483 13.7077 9.37483 12.9546V12.2728H5.28394V12.9546Z" fill="url(#paint1_radial_1566_6731)"/>
<path d="M8.35241 12.9546H6.30697C6.11869 12.9546 5.96606 13.1072 5.96606 13.2955C5.96606 13.4838 6.11869 13.6364 6.30697 13.6364H8.35241C8.5407 13.6364 8.69333 13.4838 8.69333 13.2955C8.69333 13.1072 8.5407 12.9546 8.35241 12.9546Z" fill="black" fill-opacity="0.2"/>
<path fill-rule="evenodd" clip-rule="evenodd" d="M5.8829 4.00821C6.28231 3.60881 6.76441 3.40911 7.32925 3.40911C7.51755 3.40911 7.67824 3.34254 7.81136 3.20941C7.94449 3.07627 8.0111 2.91557 8.0111 2.72729C8.0111 2.53901 7.94449 2.3783 7.81136 2.24517C7.67824 2.11204 7.51755 2.04547 7.32925 2.04547C6.38786 2.04547 5.58433 2.3783 4.91867 3.04397C4.253 3.70964 3.92017 4.51316 3.92017 5.45457C3.92017 5.64282 3.98673 5.80356 4.11987 5.93668C4.253 6.06981 4.41371 6.13637 4.60199 6.13637C4.79026 6.13637 4.95097 6.06981 5.08411 5.93668C5.21724 5.80356 5.2838 5.64282 5.2838 5.45457C5.2838 4.88973 5.4835 4.40761 5.8829 4.00821Z" fill="white"/>
<defs>
<radialGradient id="paint0_radial_1566_6731" cx="0" cy="0" r="1" gradientUnits="userSpaceOnUse" gradientTransform="translate(5.50582 3.3745) rotate(56.4705) scale(9.20156 8.17917)">
<stop stop-color="#FADF73"/>
<stop offset="0.457142" stop-color="#FFD500"/>
<stop offset="1" stop-color="#FC9900"/>
</radialGradient>
<radialGradient id="paint1_radial_1566_6731" cx="0" cy="0" r="1" gradientUnits="userSpaceOnUse" gradientTransform="translate(3.9501 11.6374) rotate(38.4256) scale(4.31354 8.62706)">
<stop stop-color="#EFFCFF"/>
<stop offset="0.999999" stop-color="#A5F2FF"/>
</radialGradient>
</defs>
</svg>
