<svg width="304" height="119" viewBox="0 0 304 119" fill="none" xmlns="http://www.w3.org/2000/svg">
<path d="M294.969 -59.5759C283.637 -58.2371 274.742 -47.5694 275.143 -35.7967C275.264 -32.2565 276.246 -28.8474 277.991 -25.9128C277.21 -23.9852 275.969 -21.9001 274.538 -20.1327C273.076 -18.3204 271.274 -16.6519 269.557 -15.5159C267.063 -16.3987 264.448 -16.6858 261.781 -16.3707C255.22 -15.5956 249.248 -11.2208 246.112 -4.91739C244.179 -4.48014 241.875 -4.34619 239.785 -4.5482C237.875 -4.73472 235.929 -5.22152 234.254 -5.92292C234.301 -6.97501 234.304 -8.0247 234.269 -9.05084C233.553 -30.0207 216.556 -45.1388 196.38 -42.7552C176.214 -40.3727 160.387 -21.3739 161.103 -0.407012C161.592 13.9296 170.009 26.2905 182.593 31.2298C182.348 34.1774 181.633 37.7088 180.606 41.0108C179.502 44.5587 177.953 48.1328 176.356 50.8236C176.189 51.1083 176.026 51.3762 175.869 51.6302C175.4 51.6518 174.928 51.6782 174.446 51.7352C161.701 53.2409 151.7 65.2417 152.152 78.4833C152.176 79.2104 152.242 79.9782 152.356 80.8199C149.605 82.4534 146.061 84.0304 142.557 85.1773C138.919 86.3695 135 87.2005 131.847 87.4258C131.33 87.4662 130.845 87.4926 130.391 87.5051C125.982 81.0039 118.399 77.549 110.513 78.4808C107.92 78.787 105.363 79.5631 102.902 80.7884C101.817 79.8907 100.799 78.7481 100.012 77.5415C99.1914 76.2756 98.5261 74.7881 98.116 73.3103C102.573 68.202 104.997 61.5427 104.772 54.9695C104.516 47.4494 100.986 40.9106 95.0714 36.9643C95.1651 34.4806 95.7559 31.4627 96.697 28.6655C97.6498 25.8403 99.0348 23.023 100.501 20.9217C100.975 20.9026 101.454 20.8725 101.949 20.814C113.297 19.4732 122.205 8.80545 121.803 -2.96726C121.401 -14.7473 111.84 -23.239 100.491 -21.8982C89.1885 -20.563 80.3217 -9.89268 80.7237 1.8859C80.9466 8.41653 83.9683 14.1396 89.03 17.6495C88.9332 20.1248 88.3435 23.1336 87.4051 25.9247C86.4985 28.6119 85.2009 31.2938 83.748 33.4465C82.627 33.4214 81.6542 33.4613 80.7121 33.5726C70.0769 34.8291 61.1352 43.3446 58.8514 54.3455L58.8209 54.3638C56.7725 55.5419 54.0927 56.5149 51.4697 57.0397C49.0042 57.5311 46.4509 57.6458 44.3541 57.4064C40.8799 48.1322 32.037 42.7009 22.224 43.8602C9.64966 45.3458 -0.216474 57.1865 0.229575 70.2551C0.675825 83.3295 11.2679 92.7577 23.8423 91.2721C34.6481 89.9955 43.6979 80.955 45.5016 69.7018C47.51 68.5962 50.0701 67.6829 52.5818 67.1786C54.9404 66.7087 57.3223 66.5877 59.3838 66.7901C62.5248 76.9219 71.9088 83.1062 82.3606 81.8714C84.4098 81.6293 86.4631 81.0938 88.4671 80.2728C89.6913 81.2085 90.8337 82.4452 91.7092 83.7842C92.6344 85.21 93.3454 86.876 93.7298 88.5129C90.1445 93.3254 88.2818 99.1546 88.4801 104.967C88.9274 118.071 99.5388 127.526 112.134 126.038C124.69 124.555 134.563 112.826 134.26 99.8293C134.389 99.7478 134.521 99.669 134.656 99.5837C137.457 97.8723 141.162 96.2056 144.823 95.0049C148.461 93.8185 152.385 92.987 155.533 92.7593C156.28 92.7005 156.963 92.6713 157.576 92.6622C162.206 98.0334 168.938 100.622 176.085 99.7774C179.134 99.4172 182.088 98.4472 184.866 96.8884C185.106 97.0132 185.351 97.1476 185.608 97.2954C188.005 98.6533 190.698 100.793 192.991 103.17C195.279 105.547 197.346 108.341 198.67 110.847C198.765 111.02 198.853 111.193 198.94 111.361C195.99 116.412 194.535 122.061 194.728 127.724C195.254 143.127 207.735 154.236 222.555 152.485C237.377 150.734 249.006 136.777 248.481 121.373C247.955 105.97 235.47 94.8619 220.648 96.6131C216.158 97.1436 211.75 98.8608 207.871 101.589C207.78 101.542 207.691 101.489 207.6 101.437C205.203 100.079 202.507 97.9364 200.22 95.5617C197.929 93.1846 195.862 90.3909 194.543 87.8842C194.497 87.797 194.451 87.7141 194.407 87.6295C197.167 83.1441 198.532 78.0978 198.359 73.0111C198.093 65.2183 194.194 58.3478 187.91 54.5584C187.92 54.3424 187.931 54.1174 187.948 53.8857C188.14 50.8267 188.881 47.036 189.984 43.4912C191.085 39.9465 192.636 36.3706 194.231 33.6816L194.344 33.4946C195.909 33.5187 197.464 33.438 198.973 33.2597C208.762 32.1033 217.833 27.0518 224.509 19.032C227.751 15.1344 230.24 10.7751 231.913 6.06636C233.82 5.65262 236.073 5.5263 238.11 5.72421C240.181 5.92855 242.329 6.48861 244.063 7.27733C245.416 16.8433 253.707 23.4303 263.1 22.3206C263.481 22.2756 263.862 22.2085 264.239 22.1375C265.381 23.6039 266.379 25.4259 267.071 27.3105C267.813 29.3437 268.261 31.634 268.324 33.6517C263.926 37.7494 261.425 43.648 261.625 49.516C261.98 59.9005 270.372 67.3897 280.336 66.2126C290.312 65.0339 298.145 55.628 297.79 45.2435C297.441 35.0173 289.248 27.5885 279.442 28.5277C278.21 27.0425 277.085 25.0412 276.331 22.9902C275.528 20.7861 275.069 18.325 275.064 16.2136C279.07 12.0372 281.249 6.43706 281.056 0.787449C280.947 -2.41996 280.053 -5.50965 278.475 -8.16684C279.263 -10.0687 280.49 -12.1153 281.885 -13.8462C283.263 -15.5484 284.97 -17.1483 286.617 -18.2849C289.663 -16.9639 293.048 -16.4764 296.43 -16.8759C307.741 -18.2122 316.619 -28.8809 316.217 -40.6565C315.814 -52.4217 306.285 -60.9128 294.969 -59.5759ZM296.076 -27.128C290.184 -26.4319 285.224 -30.8443 285.016 -36.9615C284.807 -43.0758 289.427 -48.6169 295.322 -49.3134C301.189 -50.0065 306.135 -45.5941 306.344 -39.4812C306.553 -33.364 301.946 -27.8214 296.076 -27.128ZM262.136 -6.10547C266.953 -6.67463 271.012 -3.05363 271.183 1.96564C271.354 6.97025 267.574 11.5041 262.756 12.0733C257.961 12.6398 253.921 9.02978 253.75 4.02517C253.579 -0.997035 257.336 -5.53848 262.136 -6.10547ZM279.987 55.9569C275.47 56.4906 271.661 53.083 271.499 48.3554C271.338 43.6396 274.881 39.3693 279.403 38.8351C283.937 38.2994 287.759 41.6997 287.92 46.4155C288.081 51.1431 284.521 55.4212 279.987 55.9569ZM174.8 61.999C182.089 61.1379 188.23 66.6073 188.489 74.1948C188.748 81.7882 183.028 88.6677 175.74 89.5287C168.437 90.3915 162.285 84.9146 162.025 77.3212C161.771 69.7332 167.502 62.8612 174.8 61.999ZM198.629 23.0138C183.908 24.753 171.501 13.7259 170.979 -1.56942C170.457 -16.8794 182.011 -30.7504 196.735 -32.4899C211.468 -34.2305 223.881 -23.188 224.404 -7.87363C224.664 -0.489384 222.133 6.78902 217.283 12.6209C212.408 18.4777 205.782 22.1688 198.629 23.0138ZM81.0696 43.839C88.4385 42.9684 94.6463 48.4874 94.9075 56.1409C95.1691 63.8046 89.3865 70.7445 82.0176 71.6151C74.6473 72.4858 68.4394 66.9625 68.1778 59.2987C67.9137 51.6455 73.6965 44.7101 81.0696 43.839ZM100.844 -11.6328C106.75 -12.3306 111.725 -7.91853 111.934 -1.79689C112.143 4.31741 107.505 9.8607 101.584 10.5602C95.7358 11.2511 90.8076 6.8365 90.5989 0.72366C90.3929 -5.39684 94.9855 -10.9407 100.844 -11.6328ZM111.789 115.786C104.637 116.631 98.6111 111.257 98.3569 103.81C98.1023 96.3489 103.714 89.594 110.866 88.7491C118.064 87.8987 124.13 93.2769 124.384 100.735C124.639 108.182 118.988 114.936 111.789 115.786ZM23.4951 81.0163C16.3645 81.8587 10.3579 76.5103 10.1048 69.0943C9.85184 61.6826 15.4467 54.9695 22.5773 54.1271C29.7008 53.2856 35.7028 58.6257 35.9557 66.0344C36.2032 73.4525 30.6143 80.1752 23.4951 81.0163ZM222.212 142.233C212.839 143.34 204.937 136.314 204.605 126.567C204.272 116.825 211.628 107.992 221.006 106.884C230.379 105.777 238.28 112.803 238.613 122.549C238.946 132.296 231.589 141.125 222.212 142.233Z" fill="url(#paint0_linear_1566_6605)" fill-opacity="0.2"/>
<defs>
<linearGradient id="paint0_linear_1566_6605" x1="-98.7321" y1="227.528" x2="481.737" y2="-90.7866" gradientUnits="userSpaceOnUse">
<stop stop-color="#5C76AB"/>
<stop offset="0.604201" stop-color="#A6B1C9"/>
<stop offset="0.932094" stop-color="#4C6392"/>
</linearGradient>
</defs>
</svg>
